REM DIRINDEX 1\2\6,1\2\7,1\2\8,1\2\9,1\3\10,1\3\11,1\4\12,1\4\13,1\4\14,1\5\15,1\5\16,1\5\17
REM DIRNAME cjc020,folder01,folder02,folder03,folder04,folder05,folder06,folder07,folder08,folder09,folder10,folder11,folder12,folder13,folder14,folder15,folder16
TITLE ""
FILE "1900_2_sec01_0016_0031.mp3" MP3
  TRACK 01 AUDIO
    TITLE "0:"
    INDEX 01 00:00:00
  TRACK 02 AUDIO
    TITLE "13:cjc020_2115"
    INDEX 01 00:00:17
  TRACK 03 AUDIO
    TITLE "0:"
    INDEX 01 00:01:28
  TRACK 04 AUDIO
    TITLE "14:cjc020_2116"
    INDEX 01 00:01:34
  TRACK 05 AUDIO
    TITLE "0:"
    INDEX 01 00:04:19
  TRACK 06 AUDIO
    TITLE "13:cjc020_2117"
    INDEX 01 00:04:74
  TRACK 07 AUDIO
    TITLE "0:"
    INDEX 01 00:06:22
  TRACK 08 AUDIO
    TITLE "14:cjc020_2118"
    INDEX 01 00:06:26
  TRACK 09 AUDIO
    TITLE "0:"
    INDEX 01 00:07:37
  TRACK 10 AUDIO
    TITLE "13:cjc020_2119"
    INDEX 01 00:08:17
  TRACK 11 AUDIO
    TITLE "0:"
    INDEX 01 00:09:32
  TRACK 12 AUDIO
    TITLE "14:cjc020_2120"
    INDEX 01 00:09:36
  TRACK 13 AUDIO
    TITLE "0:"
    INDEX 01 00:12:26
  TRACK 14 AUDIO
    TITLE "13:cjc020_2121"
    INDEX 01 00:13:06
  TRACK 15 AUDIO
    TITLE "0:"
    INDEX 01 00:14:19
  TRACK 16 AUDIO
    TITLE "14:cjc020_2122"
    INDEX 01 00:14:25
  TRACK 17 AUDIO
    TITLE "0:"
    INDEX 01 00:16:28
  TRACK 18 AUDIO
    TITLE "13:cjc020_2123"
    INDEX 01 00:17:08
  TRACK 19 AUDIO
    TITLE "0:"
    INDEX 01 00:18:19
  TRACK 20 AUDIO
    TITLE "14:cjc020_2124"
    INDEX 01 00:18:21
  TRACK 21 AUDIO
    TITLE "0:"
    INDEX 01 00:21:13
  TRACK 22 AUDIO
    TITLE "13:cjc020_2125"
    INDEX 01 00:21:70
  TRACK 23 AUDIO
    TITLE "0:"
    INDEX 01 00:23:03
  TRACK 24 AUDIO
    TITLE "14:cjc020_2126"
    INDEX 01 00:23:06
  TRACK 25 AUDIO
    TITLE "0:"
    INDEX 01 00:25:31
  TRACK 26 AUDIO
    TITLE "13:cjc020_2127"
    INDEX 01 00:26:11
  TRACK 27 AUDIO
    TITLE "0:"
    INDEX 01 00:27:32
  TRACK 28 AUDIO
    TITLE "14:cjc020_2128"
    INDEX 01 00:27:38
  TRACK 29 AUDIO
    TITLE "0:"
    INDEX 01 00:29:62
  TRACK 30 AUDIO
    TITLE "13:cjc020_2129"
    INDEX 01 00:30:42
  TRACK 31 AUDIO
    TITLE "0:"
    INDEX 01 00:31:59
  TRACK 32 AUDIO
    TITLE "14:cjc020_2130"
    INDEX 01 00:31:61
  TRACK 33 AUDIO
    TITLE "0:"
    INDEX 01 00:34:28
  TRACK 34 AUDIO
    TITLE "13:cjc020_2131"
    INDEX 01 00:35:08
  TRACK 35 AUDIO
    TITLE "0:"
    INDEX 01 00:36:13
  TRACK 36 AUDIO
    TITLE "14:cjc020_2132"
    INDEX 01 00:36:17
  TRACK 37 AUDIO
    TITLE "0:"
    INDEX 01 00:39:17
  TRACK 38 AUDIO
    TITLE "13:cjc020_2133"
    INDEX 01 00:39:72
  TRACK 39 AUDIO
    TITLE "0:"
    INDEX 01 00:41:04
  TRACK 40 AUDIO
    TITLE "14:cjc020_2134"
    INDEX 01 00:41:06
  TRACK 41 AUDIO
    TITLE "0:"
    INDEX 01 00:43:58
  TRACK 42 AUDIO
    TITLE "13:cjc020_2135"
    INDEX 01 00:44:44
  TRACK 43 AUDIO
    TITLE "0:"
    INDEX 01 00:45:49
  TRACK 44 AUDIO
    TITLE "14:cjc020_2136"
    INDEX 01 00:45:53
  TRACK 45 AUDIO
    TITLE "0:"
    INDEX 01 00:48:71
  TRACK 46 AUDIO
    TITLE "13:cjc020_2137"
    INDEX 01 00:49:49
  TRACK 47 AUDIO
    TITLE "0:"
    INDEX 01 00:50:52
  TRACK 48 AUDIO
    TITLE "14:cjc020_2138"
    INDEX 01 00:50:58
  TRACK 49 AUDIO
    TITLE "0:"
    INDEX 01 00:53:23
  TRACK 50 AUDIO
    TITLE "13:cjc020_2139"
    INDEX 01 00:54:03
  TRACK 51 AUDIO
    TITLE "0:"
    INDEX 01 00:55:26
  TRACK 52 AUDIO
    TITLE "14:cjc020_2140"
    INDEX 01 00:55:28
  TRACK 53 AUDIO
    TITLE "0:"
    INDEX 01 00:57:58
  TRACK 54 AUDIO
    TITLE "13:cjc020_2141"
    INDEX 01 00:58:38
  TRACK 55 AUDIO
    TITLE "0:"
    INDEX 01 00:59:49
  TRACK 56 AUDIO
    TITLE "14:cjc020_2142"
    INDEX 01 00:59:53
  TRACK 57 AUDIO
    TITLE "0:"
    INDEX 01 01:02:14
  TRACK 58 AUDIO
    TITLE "13:cjc020_2143"
    INDEX 01 01:02:67
  TRACK 59 AUDIO
    TITLE "0:"
    INDEX 01 01:04:01
  TRACK 60 AUDIO
    TITLE "14:cjc020_2144"
    INDEX 01 01:04:05
  TRACK 61 AUDIO
    TITLE "0:"
    INDEX 01 01:07:19
  TRACK 62 AUDIO
    TITLE "13:cjc020_2145"
    INDEX 01 01:08:03
  TRACK 63 AUDIO
    TITLE "0:"
    INDEX 01 01:09:09
  TRACK 64 AUDIO
    TITLE "14:cjc020_2146"
    INDEX 01 01:09:10
  TRACK 65 AUDIO
    TITLE "0:"
    INDEX 01 01:11:19
